<?xml version="1.0" standalone="no"?>
<!DOCTYPE svg PUBLIC "-//W3C//DTD SVG 20010904//EN"
 "http://www.w3.org/TR/2001/REC-SVG-20010904/DTD/svg10.dtd">
<svg version="1.0" xmlns="http://www.w3.org/2000/svg"
 width="2362.000000pt" height="2362.000000pt" viewBox="0 0 2362.000000 2362.000000"
 preserveAspectRatio="xMidYMid meet">
<metadata>
Created by potrace 1.14, written by Peter Selinger 2001-2017
</metadata>
<g transform="translate(0.000000,2362.000000) scale(0.100000,-0.100000)"
fill="#000000" stroke="none">
<path d="M6627 16304 c-1 -1 -65 -5 -142 -9 -77 -3 -153 -8 -168 -10 -15 -2
-60 -6 -100 -10 -40 -4 -81 -9 -92 -11 -11 -2 -40 -6 -65 -9 -25 -3 -56 -8
-70 -11 -14 -2 -38 -7 -55 -10 -608 -106 -1202 -344 -1714 -687 -93 -62 -338
-243 -367 -271 -6 -6 -35 -32 -65 -58 -30 -25 -65 -56 -79 -68 -44 -37 -223
-215 -285 -282 -311 -336 -553 -691 -763 -1120 -40 -82 -72 -150 -72 -154 0
-3 -8 -24 -19 -47 -86 -192 -203 -566 -247 -787 -3 -14 -11 -52 -19 -85 -7
-33 -18 -96 -25 -140 -6 -44 -13 -91 -15 -105 -15 -102 -19 -138 -32 -295 -10
-118 -10 -554 0 -675 8 -99 9 -106 33 -285 13 -104 16 -124 29 -185 2 -14 7
-41 10 -60 26 -161 148 -575 235 -790 87 -217 225 -495 322 -650 261 -414 501
-704 843 -1019 85 -78 339 -283 421 -340 366 -256 741 -447 1147 -586 115 -40
251 -81 295 -90 9 -2 55 -13 102 -25 98 -25 91 -24 235 -50 129 -23 240 -40
310 -46 28 -2 64 -6 80 -8 154 -23 742 -24 850 -1 11 2 47 7 80 10 33 3 71 7
85 9 14 3 43 7 65 10 284 37 658 135 955 249 651 252 1209 630 1700 1154 361
386 678 892 873 1393 36 91 68 176 71 190 4 14 11 34 16 45 11 25 81 268 81
280 0 2 5 19 10 37 6 18 12 44 15 58 3 14 11 53 19 86 29 127 58 302 70 422 4
35 8 71 10 82 18 93 26 571 12 765 -47 674 -249 1345 -582 1930 -31 54 -70
119 -86 143 -16 24 -29 45 -29 47 0 3 -35 55 -77 116 -43 61 -85 121 -93 133
-15 22 -111 145 -145 185 -189 227 -426 463 -620 618 -22 17 -65 52 -95 76
-30 24 -110 82 -176 129 -408 286 -896 515 -1379 647 -154 43 -444 104 -550
116 -32 4 -67 8 -77 10 -9 2 -48 7 -85 10 -37 4 -79 8 -93 11 -41 6 -487 23
-493 18z m-447 -598 c14 -2 52 -7 85 -11 50 -5 198 -29 320 -50 17 -3 77 -17
135 -31 58 -14 112 -27 120 -29 235 -55 661 -222 954 -374 265 -137 634 -371
816 -518 8 -6 53 -42 100 -79 47 -38 87 -70 90 -73 3 -4 39 -35 80 -70 230
-198 490 -472 692 -728 192 -244 299 -406 504 -763 205 -359 410 -919 494
-1350 20 -106 22 -118 35 -220 3 -30 8 -68 11 -85 30 -207 22 -658 -16 -870
-5 -27 -12 -68 -15 -90 -10 -69 -75 -316 -110 -417 -148 -424 -381 -797 -702
-1123 -98 -100 -137 -137 -243 -230 -89 -78 -292 -221 -424 -299 -313 -185
-732 -331 -1066 -371 -30 -4 -57 -8 -60 -10 -16 -9 -232 -20 -400 -20 -289 0
-495 22 -765 80 -5 1 -28 5 -50 10 -137 26 -492 136 -635 195 -41 17 -82 33
-90 35 -61 13 -492 228 -670 335 -104 62 -366 233 -405 264 -11 9 -52 40 -92
70 -263 197 -628 539 -845 791 -205 239 -428 554 -577 815 -40 69 -78 136 -86
150 -40 68 -161 322 -217 455 -113 265 -230 654 -273 905 -32 186 -40 255 -52
420 -13 176 -5 562 12 613 2 7 6 35 9 62 3 28 7 59 10 70 2 11 7 40 11 65 13
79 15 86 41 186 109 423 288 780 562 1123 42 53 155 175 252 271 194 195 196
196 330 298 52 39 100 75 105 79 59 47 253 162 390 231 215 109 535 216 740
248 22 3 42 7 45 9 3 2 33 7 65 10 33 4 69 9 80 11 11 2 61 7 110 10 50 4 92
8 94 10 5 4 472 -4 501 -10z"/>
<path d="M17649 16306 c-2 -2 -47 -7 -99 -10 -52 -4 -111 -9 -130 -11 -19 -3
-75 -9 -125 -15 -116 -14 -155 -20 -181 -25 -12 -3 -39 -7 -60 -10 -21 -3 -50
-8 -64 -11 -14 -3 -36 -8 -50 -10 -195 -34 -652 -160 -775 -215 -11 -5 -60
-24 -110 -43 -457 -174 -954 -476 -1335 -811 -121 -106 -351 -348 -453 -475
-102 -127 -301 -415 -362 -525 -210 -373 -339 -663 -449 -1004 -41 -126 -101
-339 -112 -396 -2 -11 -6 -29 -8 -40 -19 -86 -45 -217 -50 -250 -4 -23 -8 -52
-11 -65 -5 -25 -12 -74 -21 -150 -3 -25 -7 -56 -9 -70 -2 -14 -7 -65 -11 -115
-3 -49 -8 -105 -10 -125 -2 -19 -3 -123 -4 -230 -1 -235 6 -367 31 -555 6 -44
12 -91 14 -105 5 -49 17 -116 32 -185 8 -38 17 -81 19 -95 3 -14 20 -83 40
-155 37 -137 38 -141 46 -165 4 -8 23 -64 43 -125 140 -419 377 -842 694
-1240 31 -38 59 -72 62 -75 3 -3 37 -41 76 -86 437 -498 1047 -944 1653 -1209
47 -20 99 -43 115 -50 145 -63 534 -188 685 -220 271 -57 466 -90 610 -101 30
-3 66 -7 79 -9 132 -23 718 -23 936 0 22 2 67 7 100 10 33 3 74 8 90 10 152
21 205 29 300 47 61 11 121 22 135 25 14 2 45 9 70 14 25 6 53 12 64 14 50 11
203 47 216 52 8 3 20 7 25 8 146 35 558 178 720 250 17 7 63 28 104 45 66 29
345 167 381 190 8 5 62 37 120 71 252 148 471 313 652 491 37 37 68 70 68 75
0 4 -10 25 -23 45 -12 20 -37 62 -55 92 -19 31 -37 56 -41 56 -5 0 -24 -15
-43 -32 -91 -85 -123 -112 -213 -183 -369 -288 -821 -497 -1295 -599 -41 -9
-86 -19 -100 -22 -42 -9 -198 -33 -258 -39 -32 -4 -68 -8 -81 -10 -140 -23
-722 -23 -840 0 -11 2 -51 7 -88 10 -37 4 -75 9 -83 10 -8 1 -40 6 -70 10 -30
4 -64 9 -75 12 -11 2 -58 11 -105 19 -96 17 -308 66 -390 90 -205 59 -461 145
-565 189 -203 85 -347 152 -480 220 -173 89 -391 213 -442 251 -17 13 -34 24
-38 24 -11 0 -228 152 -380 265 -299 224 -567 471 -758 698 -483 575 -842
1268 -1028 1987 -22 85 -66 296 -75 360 -2 19 -9 64 -14 100 -10 68 -15 112
-26 219 -8 82 -9 426 -1 516 10 107 17 167 22 200 3 17 7 48 10 70 25 171 103
447 178 630 77 187 232 466 329 590 300 385 589 647 957 869 195 118 451 234
676 306 100 32 325 88 378 95 16 2 40 6 55 9 42 9 111 19 217 31 172 20 494
26 710 11 66 -4 122 -9 125 -11 3 -1 37 -5 75 -9 39 -4 81 -8 95 -11 14 -2 41
-6 60 -9 19 -3 49 -8 65 -11 17 -3 44 -7 60 -10 239 -40 749 -181 890 -245 11
-5 47 -19 80 -31 33 -11 74 -27 90 -34 17 -7 82 -35 145 -61 474 -200 1001
-528 1283 -797 17 -16 33 -25 38 -20 4 4 124 217 265 472 l256 464 -23 19
c-49 39 -277 187 -370 241 -352 201 -776 369 -1206 476 -135 34 -391 87 -468
96 -27 3 -61 8 -75 10 -14 3 -41 7 -60 10 -32 4 -54 7 -180 20 -25 3 -67 8
-95 11 -58 6 -760 16 -766 10z"/>
</g>
</svg>
