<?xml version="1.0" standalone="no"?>
<!DOCTYPE svg PUBLIC "-//W3C//DTD SVG 20010904//EN"
 "http://www.w3.org/TR/2001/REC-SVG-20010904/DTD/svg10.dtd">
<svg version="1.0" xmlns="http://www.w3.org/2000/svg"
 width="1771.000000pt" height="1771.000000pt" viewBox="0 0 1771.000000 1771.000000"
 preserveAspectRatio="xMidYMid meet">
<metadata>
Created by potrace 1.14, written by Peter Selinger 2001-2017
</metadata>
<g transform="translate(0.000000,1771.000000) scale(0.100000,-0.100000)"
fill="#000000" stroke="none">
<path d="M2735 17699 c-402 -35 -844 -171 -1191 -365 -880 -495 -1449 -1377
-1534 -2379 -14 -166 -14 -12034 0 -12200 61 -714 365 -1370 870 -1875 505
-505 1161 -809 1875 -870 166 -14 12034 -14 12200 0 714 61 1370 365 1875 870
505 505 809 1161 870 1875 14 166 14 12034 0 12200 -61 714 -365 1370 -870
1875 -505 505 -1161 809 -1875 870 -150 12 -12073 11 -12220 -1z m3860 -6268
c204 -20 440 -59 584 -95 548 -139 884 -407 1015 -810 58 -178 57 -138 54
-1716 -4 -1434 -4 -1446 -25 -1531 -65 -260 -205 -474 -413 -630 -281 -210
-718 -340 -1280 -379 -193 -13 -2677 -13 -2870 0 -932 65 -1487 367 -1663 905
-64 196 -62 129 -62 1665 0 1088 3 1414 13 1483 98 664 651 1030 1672 1107
222 16 269 17 1605 14 868 -1 1287 -5 1370 -13z m9030 -4 c55 -25 89 -60 117
-121 22 -48 23 -63 23 -246 0 -183 -1 -198 -23 -246 -28 -61 -62 -96 -117
-121 -38 -17 -139 -18 -1990 -24 -2009 -5 -1985 -5 -2185 -45 -298 -60 -505
-178 -591 -336 l-34 -63 -3 -1349 c-3 -1504 -7 -1404 68 -1508 109 -153 357
-263 710 -314 116 -17 259 -19 2065 -24 l1940 -5 40 -21 c51 -28 69 -48 97
-109 22 -47 23 -63 23 -250 0 -189 -1 -203 -24 -253 -28 -62 -76 -107 -131
-122 -28 -7 -638 -10 -2047 -7 -2202 3 -2079 0 -2423 63 -593 109 -975 346
-1155 718 -51 105 -80 202 -100 336 -23 147 -22 2795 1 2948 49 333 205 579
487 771 76 52 252 136 366 175 271 94 603 150 976 165 105 5 1018 8 2030 7
1750 -1 1842 -2 1880 -19z"/>
<path d="M3805 10663 c-292 -21 -561 -95 -715 -198 -85 -57 -133 -110 -174
-195 l-31 -65 0 -1355 0 -1355 27 -57 c96 -205 375 -340 808 -390 167 -19
2583 -19 2750 0 468 55 757 210 824 443 15 50 16 191 14 1385 l-3 1329 -32 68
c-90 191 -330 313 -730 374 -96 15 -257 17 -1398 18 -709 1 -1312 0 -1340 -2z"/>
</g>
</svg>
