<?xml version="1.0" standalone="no"?>
<!DOCTYPE svg PUBLIC "-//W3C//DTD SVG 20010904//EN"
 "http://www.w3.org/TR/2001/REC-SVG-20010904/DTD/svg10.dtd">
<svg version="1.0" xmlns="http://www.w3.org/2000/svg"
 width="400.000000pt" height="400.000000pt" viewBox="0 0 400.000000 400.000000"
 preserveAspectRatio="xMidYMid meet">
<metadata>
Created by potrace 1.14, written by Peter Selinger 2001-2017
</metadata>
<g transform="translate(0.000000,400.000000) scale(0.100000,-0.100000)"
fill="#000000" stroke="none">
<path d="M855 2953 c-168 -32 -348 -101 -429 -165 -113 -90 -145 -120 -201
-191 -99 -125 -169 -284 -194 -442 -12 -75 -7 -284 8 -350 104 -447 468 -743
926 -753 458 -11 844 273 963 708 21 78 26 118 26 225 1 173 -13 255 -66 384
-78 192 -243 374 -428 474 -57 32 -171 75 -245 93 -65 15 -307 27 -360 17z
m310 -287 c167 -45 331 -175 408 -323 144 -276 93 -628 -122 -838 -116 -114
-268 -176 -441 -179 -129 -3 -209 13 -315 64 -231 111 -364 335 -363 615 0 57
7 134 15 172 58 258 247 443 508 498 78 16 234 12 310 -9z"/>
<path d="M2998 2944 c-235 -42 -456 -177 -592 -359 -88 -118 -140 -227 -173
-360 -27 -111 -24 -345 5 -455 49 -180 124 -313 247 -436 140 -139 313 -230
515 -269 74 -14 285 -14 360 1 165 32 326 107 445 208 46 39 165 180 165 196
0 5 -48 45 -107 89 l-108 81 -35 -43 c-159 -193 -312 -271 -535 -270 -128 0
-205 17 -312 69 -161 80 -306 270 -337 444 -4 19 -9 46 -11 60 -7 35 -6 171 0
217 39 265 228 480 480 548 171 46 384 16 524 -75 78 -51 170 -141 210 -208 6
-11 34 5 115 63 59 43 109 81 112 86 12 20 -96 150 -187 225 -65 53 -247 154
-278 154 -9 0 -34 7 -56 14 -64 22 -102 27 -240 31 -83 2 -158 -2 -207 -11z"/>
</g>
</svg>
